<?xml version="1.0" encoding="utf-8"?>
<!-- Generator: Adobe Illustrator 23.0.6, SVG Export Plug-In . SVG Version: 6.00 Build 0)  -->
<svg version="1.1" id="Layer_1" xmlns="http://www.w3.org/2000/svg" xmlns:xlink="http://www.w3.org/1999/xlink" x="0px" y="0px"
	 viewBox="0 0 1200 960" style="enable-background:new 0 0 1200 960;" xml:space="preserve">
<style type="text/css">
	.st0{fill-rule:evenodd;clip-rule:evenodd;fill:#FFFFFF;}
</style>
<path class="st0" d="M337.44,476.06L40.9,356.53c-26.86-9.22-30.06-28.58,12.52-37.9l1080.05-282.1
	c58.78-16.08,47.87,7.38,36.66,46.1L894.6,891.51c-14.85,46.05-24.46,47.63-62.28,13.54L630.65,726.83L483.14,838.28
	c-13.23,9.81-28.11,8.87-27.97-7.4l2.67-251.53c0.04-1.64,0.65-2.89,2.42-4.47l525.11-385.75c14.64-10.7,13.76-16.71-6.59-7.49
	L357.36,474.51C346.79,479.28,346.71,479.95,337.44,476.06"/>
</svg>
